<svg width="32" height="32" viewBox="0 0 32 32" fill="none" xmlns="http://www.w3.org/2000/svg">
<path fill-rule="evenodd" clip-rule="evenodd" d="M14.2922 5.99317L14.3342 6.05185L14.7103 6.57449L15.0115 6.9926L15.875 8.19559L16.7367 9.39674L23.0115 18.1312C23.1338 18.2999 23.3346 18.3916 23.5427 18.3696C23.9371 18.3293 24.1762 17.913 24.0138 17.5499L18.5532 5.333L17.927 3.93196H17.9234C17.9015 3.88061 17.8759 3.82743 17.8485 3.77792C17.6733 3.44233 17.4031 3.15259 17.0526 2.94903C16.7221 2.75832 16.3606 2.66663 16.0065 2.66663C15.9846 2.66663 15.9608 2.66663 15.9389 2.66846C15.236 2.69047 14.5624 3.0664 14.1863 3.72107C13.8869 4.24188 13.8339 4.8397 13.9946 5.37517C14.0585 5.59523 14.1589 5.80429 14.2922 5.99317ZM26.8398 20.7334C26.681 20.693 26.5203 20.6747 26.356 20.6747C26.2903 20.6747 26.2246 20.6784 26.1589 20.6839L26.0785 20.6912L25.4487 20.7554L24.9357 20.8086L23.4679 20.959L22 21.1093L11.3328 22.2004C11.1265 22.2225 10.9458 22.3527 10.8618 22.5415C10.6993 22.9046 10.9385 23.3209 11.3328 23.3612L24.5961 24.7183L26.0858 24.8705C26.1534 24.8778 26.2209 24.8833 26.2903 24.8852H26.3597C26.7139 24.8852 27.0735 24.7935 27.4021 24.6027C27.7527 24.3992 28.0229 24.1094 28.2018 23.7757C28.534 23.154 28.5468 22.3802 28.1707 21.7237C27.8695 21.201 27.3802 20.8563 26.8398 20.7297V20.7334ZM7.85311 23.0074L7.59022 23.5942L7.55919 23.6621C7.46425 23.8711 7.33463 24.0618 7.17762 24.2269C6.79789 24.634 6.25567 24.8889 5.65321 24.8889C4.89922 24.8889 4.23833 24.4891 3.86955 23.8895C3.67056 23.5685 3.55554 23.1889 3.55554 22.7818C3.55554 22.3747 3.66873 21.9951 3.86955 21.6742C3.89876 21.6247 3.93163 21.5752 3.96631 21.5293L3.98457 21.5037L4.8627 20.2823L12.6637 9.4243C12.8955 9.10155 13.3739 9.10155 13.6057 9.4243C13.7262 9.59485 13.75 9.81491 13.6641 10.0056L9.27347 19.8312L8.66735 21.1827L8.06306 22.5343L7.85311 23.0074Z" fill="#DF2929"/>
</svg>
